# xmcd CD database file generated by Grip 3.3.1
# 
# Track frame offsets:
#       150
#       20252
#       38378
#       65513
#       97228
#       112075
#       133202
#       146795
#       165153
#       187013
#       202695
#       224424
#       246794
# 
# Disc length: 3508 seconds
# 
# Revision: 4
# Processed by: cddbd v1.5.1PL2 Copyright (c) Steve Scherf et al.
# Submitted via: Grip 3.3.1
# 
DISCID=ba0db20d
DTITLE=Guy Forsyth - Steak
DYEAR=2000
DGENRE=Blues
TTITLE0=Mona
TTITLE1=Mad
TTITLE2=Louisiana Blues
TTITLE3=Good Time Man
TTITLE4=Lovin' Dangerously
TTITLE5=Tricks Of The Trade
TTITLE6=Makin, Money
TTITLE7=My Love Will Never Die
TTITLE8=Thibodaux Furlough
TTITLE9=Cadillac
TTITLE10=You're Still Here
TTITLE11=Adam's Rib
TTITLE12=Poor Boy
EXTD=
EXTT0=
EXTT1=
EXTT2=
EXTT3=
EXTT4=
EXTT5=
EXTT6=
EXTT7=
EXTT8=
EXTT9=
EXTT10=
EXTT11=
EXTT12=
PLAYORDER=
